<svg width="130" height="156" viewBox="0 0 130 156" fill="none" xmlns="http://www.w3.org/2000/svg">
<g filter="url(#filter0_d_896_1354)">
<path d="M14.9111 57.7518L28.0056 67.1757L27.9411 56.3119L14.9111 57.7518Z" fill="#BF9017"/>
<path d="M124.035 32.8363L124.035 126.201C124.035 129.672 121.213 132.488 117.733 132.488H34.3204C30.8406 132.488 28.0181 129.672 28.0181 126.201L28.0181 6.28747C28.0181 2.8162 30.8406 0.000610352 34.3204 0.000610352L88.8247 0.000610352L124.035 32.8363Z" fill="white"/>
<path d="M76.0659 58.0347H16.0841C14.6406 58.0347 13.4678 56.8647 13.4678 55.4248L13.4678 28.9788C13.4678 27.5389 14.6406 26.369 16.0841 26.369L76.0659 26.369C77.5094 26.369 78.6822 27.5389 78.6822 28.9788V55.4248C78.6822 56.8647 77.5094 58.0347 76.0659 58.0347Z" fill="#D8A521"/>
<path d="M26.3944 52.1593C25.0927 52.1593 23.9972 51.9022 23.1079 51.3751C22.2186 50.8479 21.484 50.0765 20.8911 49.0352L23.1466 47.3767C23.5203 48.0452 23.9585 48.5466 24.4483 48.8552C24.938 49.1637 25.4664 49.318 26.0206 49.318C26.8841 49.318 27.5286 49.0609 27.9668 48.5338C28.405 48.0066 28.6112 47.0938 28.6112 45.7825V33.4402H31.8848V46.0653C31.8848 46.9138 31.7817 47.6981 31.5755 48.4438C31.3692 49.1894 31.0342 49.8323 30.5831 50.3851C30.132 50.9379 29.5649 51.3751 28.8689 51.6965C28.173 51.9922 27.3481 52.1593 26.3944 52.1593Z" fill="white"/>
<path d="M36.4731 51.8117V33.4268H42.2728C43.291 33.4268 44.2319 33.5168 45.1083 33.7097C45.9847 33.9025 46.7322 34.2111 47.3766 34.6611C48.021 35.1111 48.5108 35.7025 48.8716 36.4224C49.2325 37.1424 49.4129 38.0424 49.4129 39.1095C49.4129 40.1251 49.2325 40.9994 48.8716 41.7579C48.5108 42.5036 48.021 43.1336 47.3895 43.6221C46.758 44.1235 46.0233 44.4835 45.1598 44.7149C44.3092 44.9463 43.3812 45.062 42.3888 45.062H39.7339V51.8117H36.4731ZM39.7468 42.4522H42.144C44.8505 42.4522 46.2038 41.3336 46.2038 39.1095C46.2038 37.9524 45.8558 37.1424 45.1469 36.7053C44.4381 36.2682 43.407 36.0496 42.028 36.0496H39.7468V42.4522Z" fill="white"/>
<path d="M60.6003 52.1587C59.363 52.1587 58.2031 51.953 57.1462 51.5416C56.0894 51.1302 55.1615 50.5259 54.3882 49.7159C53.602 48.906 52.9962 47.916 52.5709 46.7332C52.1327 45.5504 51.9265 44.2005 51.9265 42.6834C51.9265 41.1792 52.1456 39.8421 52.5967 38.6464C53.0478 37.4508 53.6664 36.448 54.4397 35.6252C55.213 34.8023 56.141 34.1724 57.1978 33.7352C58.2546 33.2981 59.4017 33.0924 60.6261 33.0924C61.9407 33.0924 63.0491 33.3367 63.9641 33.8124C64.8792 34.2881 65.6267 34.828 66.2067 35.4323L64.4539 37.5408C63.9899 37.0908 63.4615 36.7051 62.8944 36.3965C62.3273 36.088 61.6056 35.9337 60.7421 35.9337C59.9172 35.9337 59.1697 36.088 58.4995 36.3965C57.8293 36.7051 57.2622 37.1422 56.7854 37.7208C56.3085 38.2865 55.9348 38.9936 55.677 39.8164C55.4192 40.6392 55.2775 41.5649 55.2775 42.5934C55.2775 44.689 55.7543 46.3347 56.6952 47.5303C57.6489 48.726 59.0537 49.3174 60.9096 49.3174C61.438 49.3174 61.9278 49.2531 62.4046 49.1117C62.8686 48.9703 63.2553 48.7646 63.5646 48.5074V44.5476H60.0719V41.8734H66.5031V49.9731C65.8845 50.5902 65.0596 51.1173 64.0415 51.5287C63.0104 51.9401 61.8633 52.1587 60.6003 52.1587Z" fill="white"/>
<path d="M124.036 32.8361V33.8132H92.6664C90.2692 33.8132 88.3359 31.8718 88.3359 29.4805V0.000396729L88.8257 0.000396729L124.036 32.8361Z" fill="#E6E7E8"/>
<path d="M106.275 73.463H45.7649V68.2561H106.275H106.288V73.463H106.275Z" fill="#E6E7E8"/>
<path d="M106.275 85.4581H45.7649V80.2512H106.275H106.288V85.4581H106.275Z" fill="#E6E7E8"/>
<path d="M106.276 97.4402H45.7654V92.2461H106.276H106.288V97.4402H106.276Z" fill="#E6E7E8"/>
<path d="M106.275 109.435H45.7649V104.229H106.275H106.288V109.435H106.275Z" fill="#E6E7E8"/>
</g>
<defs>
<filter id="filter0_d_896_1354" x="0.296113" y="0.000396729" width="129.385" height="155.82" filterUnits="userSpaceOnUse" color-interpolation-filters="sRGB">
<feFlood flood-opacity="0" result="BackgroundImageFix"/>
<feColorMatrix in="SourceAlpha" type="matrix" values="0 0 0 0 0 0 0 0 0 0 0 0 0 0 0 0 0 0 127 0" result="hardAlpha"/>
<feOffset dx="-3.76333" dy="13.9243"/>
<feGaussianBlur stdDeviation="4.70416"/>
<feComposite in2="hardAlpha" operator="out"/>
<feColorMatrix type="matrix" values="0 0 0 0 0 0 0 0 0 0 0 0 0 0 0 0 0 0 0.4 0"/>
<feBlend mode="normal" in2="BackgroundImageFix" result="effect1_dropShadow_896_1354"/>
<feBlend mode="normal" in="SourceGraphic" in2="effect1_dropShadow_896_1354" result="shape"/>
</filter>
</defs>
</svg>
