<svg width="43" height="360" viewBox="0 0 43 360" fill="none" xmlns="http://www.w3.org/2000/svg">
<g filter="url(#filter0_b_896_1096)">
<path fill-rule="evenodd" clip-rule="evenodd" d="M0.279785 19.9456C0.279785 12.964 0.279785 9.4732 1.6385 6.80657C2.83366 4.46093 4.74072 2.55387 7.08635 1.35872C9.75298 0 13.2438 0 20.2254 0H22.7186C29.7003 0 33.1911 0 35.8577 1.35872C38.2033 2.55387 40.1104 4.46093 41.3055 6.80657C42.6643 9.4732 42.6643 12.964 42.6643 19.9456V339.076C42.6643 346.057 42.6643 349.548 41.3055 352.215C40.1104 354.561 38.2033 356.468 35.8577 357.663C33.1911 359.021 29.7003 359.021 22.7186 359.021H20.2254C13.2438 359.021 9.75298 359.021 7.08635 357.663C4.74072 356.468 2.83366 354.561 1.6385 352.215C0.279785 349.548 0.279785 346.057 0.279785 339.076V19.9456Z" fill="black" fill-opacity="0.364909"/>
</g>
<path fill-rule="evenodd" clip-rule="evenodd" d="M21.4718 336.583C24.2257 336.583 26.4582 334.35 26.4582 331.596C26.4582 328.842 24.2257 326.61 21.4718 326.61C18.7179 326.61 16.4854 328.842 16.4854 331.596C16.4854 334.35 18.7179 336.583 21.4718 336.583ZM21.4718 337.829C24.9142 337.829 27.7048 335.039 27.7048 331.596C27.7048 328.154 24.9142 325.363 21.4718 325.363C18.0294 325.363 15.2388 328.154 15.2388 331.596C15.2388 335.039 18.0294 337.829 21.4718 337.829Z" fill="white"/>
<rect x="20.2253" y="54.8505" width="2.4932" height="249.32" rx="1.2466" fill="#D1D1D6"/>
<rect x="20.2253" y="179.511" width="2.4932" height="124.66" rx="1.2466" fill="#0C7BEE"/>
<path fill-rule="evenodd" clip-rule="evenodd" d="M21.4722 13.0892C21.8164 13.0892 22.0955 13.3683 22.0955 13.7125V16.2057C22.0955 16.55 21.8164 16.829 21.4722 16.829C21.1279 16.829 20.8489 16.55 20.8489 16.2057V13.7125C20.8489 13.3683 21.1279 13.0892 21.4722 13.0892ZM11.3329 17.2859C11.5763 17.0424 11.9709 17.0424 12.2143 17.2859L13.9845 19.056C14.2279 19.2994 14.2279 19.6941 13.9845 19.9375C13.7411 20.1809 13.3464 20.1809 13.103 19.9375L11.3329 18.1673C11.0894 17.9239 11.0894 17.5293 11.3329 17.2859ZM31.6115 17.2859C31.8549 17.5293 31.8549 17.9239 31.6115 18.1673L29.8413 19.9375C29.5979 20.1809 29.2032 20.1809 28.9598 19.9375C28.7164 19.6941 28.7164 19.2994 28.9598 19.056L30.73 17.2859C30.9734 17.0424 31.3681 17.0424 31.6115 17.2859ZM21.4722 21.8155C18.374 21.8155 15.8624 24.327 15.8624 27.4252C15.8624 30.5233 18.374 33.0349 21.4722 33.0349C24.5703 33.0349 27.0819 30.5233 27.0819 27.4252C27.0819 24.327 24.5703 21.8155 21.4722 21.8155ZM14.6158 27.4252C14.6158 23.6385 17.6855 20.5688 21.4722 20.5688C25.2588 20.5688 28.3285 23.6385 28.3285 27.4252C28.3285 31.2118 25.2588 34.2815 21.4722 34.2815C17.6855 34.2815 14.6158 31.2118 14.6158 27.4252ZM7.13623 27.4252C7.13623 27.0809 7.41529 26.8019 7.75953 26.8019H10.2527C10.597 26.8019 10.876 27.0809 10.876 27.4252C10.876 27.7694 10.597 28.0485 10.2527 28.0485H7.75953C7.41529 28.0485 7.13623 27.7694 7.13623 27.4252ZM32.0683 27.4252C32.0683 27.0809 32.3473 26.8019 32.6916 26.8019H35.1848C35.529 26.8019 35.8081 27.0809 35.8081 27.4252C35.8081 27.7694 35.529 28.0485 35.1848 28.0485H32.6916C32.3473 28.0485 32.0683 27.7694 32.0683 27.4252ZM13.9845 34.9128C14.2279 35.1562 14.2279 35.5509 13.9845 35.7943L12.2143 37.5645C11.9709 37.8079 11.5763 37.8079 11.3329 37.5645C11.0894 37.3211 11.0894 36.9264 11.3329 36.683L13.103 34.9128C13.3464 34.6694 13.7411 34.6694 13.9845 34.9128ZM28.9598 34.9128C29.2032 34.6694 29.5979 34.6694 29.8413 34.9128L31.6115 36.683C31.8549 36.9264 31.8549 37.3211 31.6115 37.5645C31.3681 37.8079 30.9734 37.8079 30.73 37.5645L28.9598 35.7943C28.7164 35.5509 28.7164 35.1562 28.9598 34.9128ZM21.4722 38.0213C21.8164 38.0213 22.0955 38.3003 22.0955 38.6446V41.1378C22.0955 41.482 21.8164 41.7611 21.4722 41.7611C21.1279 41.7611 20.8489 41.482 20.8489 41.1378V38.6446C20.8489 38.3003 21.1279 38.0213 21.4722 38.0213Z" fill="white"/>
<circle cx="21.4717" cy="179.511" r="14.9592" fill="white"/>
<defs>
<filter id="filter0_b_896_1096" x="-33.6064" y="-33.8862" width="110.157" height="426.794" filterUnits="userSpaceOnUse" color-interpolation-filters="sRGB">
<feFlood flood-opacity="0" result="BackgroundImageFix"/>
<feGaussianBlur in="BackgroundImageFix" stdDeviation="16.9431"/>
<feComposite in2="SourceAlpha" operator="in" result="effect1_backgroundBlur_896_1096"/>
<feBlend mode="normal" in="SourceGraphic" in2="effect1_backgroundBlur_896_1096" result="shape"/>
</filter>
</defs>
</svg>
