<svg width="160" height="181" viewBox="0 0 160 181" fill="none" xmlns="http://www.w3.org/2000/svg">
<g filter="url(#filter0_d_896_1324)">
<path d="M23.2041 94.0128L38.8958 97.9572L34.8517 87.8739L23.2041 94.0128Z" fill="#BA1E2A"/>
<path d="M116.037 30.639L150.275 117.499C151.548 120.729 149.943 124.388 146.691 125.669L68.7473 156.392C65.4957 157.674 61.8257 156.094 60.5527 152.865L16.5796 41.3052C15.3067 38.0757 16.9116 34.4167 20.1633 33.135L71.094 13.0597L116.037 30.639Z" fill="white"/>
<path d="M80.4521 71.7514L24.403 93.8441C23.0542 94.3758 21.5292 93.7193 21.0012 92.3797L11.3033 67.7761C10.7752 66.4364 11.4421 64.916 12.791 64.3843L68.84 42.2916C70.1889 41.76 71.7138 42.4164 72.2419 43.756L81.9398 68.3597C82.4678 69.6993 81.8009 71.2197 80.4521 71.7514Z" fill="#ED1B24"/>
<path d="M29.8774 84.9969L23.1355 67.8928L28.5549 65.7566C29.5064 65.3816 30.4185 65.1188 31.3082 64.9754C32.1978 64.832 33.0095 64.8437 33.7767 65.025C34.5438 65.2063 35.2183 65.5761 35.8196 66.113C36.4208 66.6499 36.9194 67.4207 37.3107 68.4135C37.6832 69.3584 37.8352 70.2382 37.7761 71.0768C37.7124 71.9034 37.4857 72.6699 37.0748 73.357C36.6685 74.0561 36.1141 74.6616 35.392 75.1949C34.6821 75.7235 33.8574 76.173 32.93 76.5385L30.4491 77.5164L32.9243 83.7959L29.8774 84.9969ZM29.5041 75.0836L31.7442 74.2006C34.2732 73.2038 35.1276 71.6647 34.312 69.5955C33.8877 68.519 33.2655 67.8936 32.4428 67.748C31.6201 67.6025 30.5765 67.7789 29.2879 68.2868L27.1563 69.127L29.5041 75.0836Z" fill="white"/>
<path d="M45.2082 78.9539L38.4663 61.8498L43.0789 60.0316C45.7163 58.992 48.0418 58.8907 50.0795 59.7182C52.1171 60.5458 53.6862 62.3733 54.7989 65.196C55.3552 66.6074 55.6528 67.9273 55.7085 69.1629C55.7595 70.3866 55.5638 71.514 55.1361 72.5117C54.7132 73.5214 54.0703 74.3967 53.2048 75.1662C52.3393 75.9357 51.2659 76.5661 49.9893 77.0693L45.2082 78.9539ZM47.2886 75.3009L48.6375 74.7692C50.3958 74.0762 51.5466 73.0421 52.0899 71.6671C52.6333 70.2922 52.4901 68.5521 51.6603 66.447C50.8352 64.3538 49.7668 63.0199 48.4335 62.4261C47.1049 61.8442 45.5795 61.8927 43.8333 62.581L42.4844 63.1127L47.2886 75.3009Z" fill="white"/>
<path d="M61.6591 72.4699L54.9172 55.3658L65.3226 51.2644L66.3315 53.824L58.9851 56.7197L60.8945 61.5639L67.157 59.0954L68.1659 61.6551L61.9035 64.1235L64.7181 71.2642L61.6591 72.4699Z" fill="white"/>
<path d="M116.037 30.6391L116.395 31.5482L87.0822 43.1025C84.8421 43.9854 82.3237 42.8914 81.4468 40.6666L70.6362 13.2402L71.0939 13.0598L116.037 30.6391Z" fill="#E6E7E8"/>
<path d="M114.34 74.9771L57.7974 97.2644L55.8879 92.4203L112.431 70.1329L112.443 70.1282L114.352 74.9723L114.34 74.9771Z" fill="#E6E7E8"/>
<path d="M118.739 86.1368L62.1963 108.424L60.2869 103.58L116.83 81.2926L116.842 81.2879L118.751 86.1321L118.739 86.1368Z" fill="#E6E7E8"/>
<path d="M123.133 97.2842L66.5902 119.572L64.6855 114.739L121.228 92.452L121.24 92.4472L123.145 97.2794L123.133 97.2842Z" fill="#E6E7E8"/>
<path d="M127.532 108.444L70.9892 130.731L69.0798 125.887L125.623 103.6L125.635 103.595L127.544 108.439L127.532 108.444Z" fill="#E6E7E8"/>
</g>
<defs>
<filter id="filter0_d_896_1324" x="1.33765" y="13.0598" width="158.406" height="167.11" filterUnits="userSpaceOnUse" color-interpolation-filters="sRGB">
<feFlood flood-opacity="0" result="BackgroundImageFix"/>
<feColorMatrix in="SourceAlpha" type="matrix" values="0 0 0 0 0 0 0 0 0 0 0 0 0 0 0 0 0 0 127 0" result="hardAlpha"/>
<feOffset dx="-0.376333" dy="13.9243"/>
<feGaussianBlur stdDeviation="4.70416"/>
<feComposite in2="hardAlpha" operator="out"/>
<feColorMatrix type="matrix" values="0 0 0 0 0 0 0 0 0 0 0 0 0 0 0 0 0 0 0.4 0"/>
<feBlend mode="normal" in2="BackgroundImageFix" result="effect1_dropShadow_896_1324"/>
<feBlend mode="normal" in="SourceGraphic" in2="effect1_dropShadow_896_1324" result="shape"/>
</filter>
</defs>
</svg>
