<svg width="28" height="28" viewBox="0 0 28 28" fill="none" xmlns="http://www.w3.org/2000/svg">
<path d="M2.00008 11.3332C2.3537 11.3332 2.69284 11.1927 2.94289 10.9426C3.19294 10.6926 3.33342 10.3535 3.33342 9.99984V4.66651C3.33342 4.31288 3.47389 3.97374 3.72394 3.7237C3.97399 3.47365 4.31313 3.33317 4.66675 3.33317H10.0001C10.3537 3.33317 10.6928 3.1927 10.9429 2.94265C11.1929 2.6926 11.3334 2.35346 11.3334 1.99984C11.3334 1.64622 11.1929 1.30708 10.9429 1.05703C10.6928 0.80698 10.3537 0.666504 10.0001 0.666504H4.66675C3.60588 0.666504 2.58847 1.08793 1.83832 1.83808C1.08818 2.58822 0.666748 3.60564 0.666748 4.66651V9.99984C0.666748 10.3535 0.807224 10.6926 1.05727 10.9426C1.30732 11.1927 1.64646 11.3332 2.00008 11.3332Z" fill="#666666"/>
<path d="M23.3334 0.666504H18.0001C17.6465 0.666504 17.3073 0.80698 17.0573 1.05703C16.8072 1.30708 16.6667 1.64622 16.6667 1.99984C16.6667 2.35346 16.8072 2.6926 17.0573 2.94265C17.3073 3.1927 17.6465 3.33317 18.0001 3.33317H23.3334C23.687 3.33317 24.0262 3.47365 24.2762 3.7237C24.5263 3.97374 24.6667 4.31288 24.6667 4.66651V9.99984C24.6667 10.3535 24.8072 10.6926 25.0573 10.9426C25.3073 11.1927 25.6464 11.3332 26.0001 11.3332C26.3537 11.3332 26.6928 11.1927 26.9429 10.9426C27.1929 10.6926 27.3334 10.3535 27.3334 9.99984V4.66651C27.3334 3.60564 26.912 2.58822 26.1618 1.83808C25.4117 1.08793 24.3943 0.666504 23.3334 0.666504Z" fill="#666666"/>
<path d="M26.0001 16.6665C25.6464 16.6665 25.3073 16.807 25.0573 17.057C24.8072 17.3071 24.6667 17.6462 24.6667 17.9998V23.3332C24.6667 23.6868 24.5263 24.0259 24.2762 24.276C24.0262 24.526 23.687 24.6665 23.3334 24.6665H18.0001C17.6465 24.6665 17.3073 24.807 17.0573 25.057C16.8072 25.3071 16.6667 25.6462 16.6667 25.9998C16.6667 26.3534 16.8072 26.6926 17.0573 26.9426C17.3073 27.1927 17.6465 27.3332 18.0001 27.3332H23.3334C24.3943 27.3332 25.4117 26.9117 26.1618 26.1616C26.912 25.4114 27.3334 24.394 27.3334 23.3332V17.9998C27.3334 17.6462 27.1929 17.3071 26.9429 17.057C26.6928 16.807 26.3537 16.6665 26.0001 16.6665Z" fill="#666666"/>
<path d="M10.0001 24.6665H4.66675C4.31313 24.6665 3.97399 24.526 3.72394 24.276C3.47389 24.0259 3.33342 23.6868 3.33342 23.3332V17.9998C3.33342 17.6462 3.19294 17.3071 2.94289 17.057C2.69284 16.807 2.3537 16.6665 2.00008 16.6665C1.64646 16.6665 1.30732 16.807 1.05727 17.057C0.807224 17.3071 0.666748 17.6462 0.666748 17.9998V23.3332C0.666748 24.394 1.08818 25.4114 1.83832 26.1616C2.58847 26.9117 3.60588 27.3332 4.66675 27.3332H10.0001C10.3537 27.3332 10.6928 27.1927 10.9429 26.9426C11.1929 26.6926 11.3334 26.3534 11.3334 25.9998C11.3334 25.6462 11.1929 25.3071 10.9429 25.057C10.6928 24.807 10.3537 24.6665 10.0001 24.6665Z" fill="#666666"/>
<path d="M19.3333 6H8.66667C7.19391 6 6 7.19391 6 8.66667V19.3333C6 20.8061 7.19391 22 8.66667 22H19.3333C20.8061 22 22 20.8061 22 19.3333V8.66667C22 7.19391 20.8061 6 19.3333 6Z" fill="#666666"/>
</svg>
