<svg width="43" height="360" viewBox="0 0 43 360" fill="none" xmlns="http://www.w3.org/2000/svg">
<g filter="url(#filter0_b_896_1087)">
<path fill-rule="evenodd" clip-rule="evenodd" d="M0.493896 19.9456C0.493896 12.964 0.493896 9.4732 1.85261 6.80657C3.04777 4.46093 4.95483 2.55387 7.30046 1.35872C9.96709 0 13.4579 0 20.4395 0H22.9327C29.9144 0 33.4052 0 36.0718 1.35872C38.4174 2.55387 40.3245 4.46093 41.5197 6.80657C42.8784 9.4732 42.8784 12.964 42.8784 19.9456V339.076C42.8784 346.057 42.8784 349.548 41.5197 352.215C40.3245 354.561 38.4174 356.468 36.0718 357.663C33.4052 359.021 29.9144 359.021 22.9327 359.021H20.4395C13.4579 359.021 9.96709 359.021 7.30046 357.663C4.95483 356.468 3.04777 354.561 1.85261 352.215C0.493896 349.548 0.493896 346.057 0.493896 339.076V19.9456Z" fill="black" fill-opacity="0.364909"/>
</g>
<path fill-rule="evenodd" clip-rule="evenodd" d="M21.55 337.557C24.9173 337.557 27.6471 334.827 27.6471 331.46C27.6471 328.093 24.9173 325.363 21.55 325.363C18.1828 325.363 15.453 328.093 15.453 331.46C15.453 334.827 18.1828 337.557 21.55 337.557ZM21.55 338.804C25.6058 338.804 28.8937 335.516 28.8937 331.46C28.8937 327.404 25.6058 324.116 21.55 324.116C17.4943 324.116 14.2064 327.404 14.2064 331.46C14.2064 335.516 17.4943 338.804 21.55 338.804Z" fill="white"/>
<path fill-rule="evenodd" clip-rule="evenodd" d="M21.641 326.565C24.3448 326.565 26.5367 328.757 26.5367 331.461C26.5367 334.165 24.3448 336.357 21.641 336.357V326.565Z" fill="white"/>
<rect x="20.4396" y="54.8505" width="2.4932" height="249.32" rx="1.2466" fill="#D1D1D6"/>
<circle cx="21.6859" cy="289.212" r="14.9592" fill="white"/>
<path fill-rule="evenodd" clip-rule="evenodd" d="M21.686 14.959C28.5708 14.959 34.152 20.5403 34.152 27.4251C34.152 34.3099 28.5708 39.8911 21.686 39.8911C14.8012 39.8911 9.21997 34.3099 9.21997 27.4251C9.21997 20.5403 14.8012 14.959 21.686 14.959ZM21.686 16.2056C15.4897 16.2056 10.4666 21.2287 10.4666 27.425C10.4666 33.6214 15.4897 38.6445 21.686 38.6445C27.8823 38.6445 32.9055 33.6214 32.9055 27.425C32.9055 21.2287 27.8823 16.2056 21.686 16.2056ZM12.9598 27.425C12.9598 22.6057 16.8667 18.6988 21.686 18.6988V36.1512H21.7062L21.686 36.1513C16.8667 36.1513 12.9598 32.2444 12.9598 27.425Z" fill="#1EA1F3"/>
<defs>
<filter id="filter0_b_896_1087" x="-33.3923" y="-33.8862" width="110.157" height="426.794" filterUnits="userSpaceOnUse" color-interpolation-filters="sRGB">
<feFlood flood-opacity="0" result="BackgroundImageFix"/>
<feGaussianBlur in="BackgroundImageFix" stdDeviation="16.9431"/>
<feComposite in2="SourceAlpha" operator="in" result="effect1_backgroundBlur_896_1087"/>
<feBlend mode="normal" in="SourceGraphic" in2="effect1_backgroundBlur_896_1087" result="shape"/>
</filter>
</defs>
</svg>
