<svg width="159" height="187" viewBox="0 0 159 187" fill="none" xmlns="http://www.w3.org/2000/svg">
<g filter="url(#filter0_d_896_1339)">
<path d="M34.2435 52.7265L41.84 66.906L46.5376 57.1102L34.2435 52.7265Z" fill="#005BB3"/>
<path d="M142.834 77.8795L101.966 161.825C100.447 164.946 96.6878 166.247 93.5729 164.731L18.906 128.38C15.791 126.864 14.4968 123.102 16.0163 119.981L68.5045 12.1657C70.0239 9.04468 73.7829 7.74318 76.8979 9.25965L125.688 33.0121L142.834 77.8795Z" fill="white"/>
<path d="M88.8624 79.6316L35.1696 53.4922C33.8774 52.8631 33.3397 51.3001 33.97 50.0054L45.5458 26.2276C46.1761 24.9329 47.7381 24.3921 49.0302 25.0211L102.723 51.1606C104.015 51.7897 104.553 53.3527 103.923 54.6474L92.3467 78.4252C91.7165 79.7199 90.1545 80.2607 88.8624 79.6316Z" fill="#0283FF"/>
<path d="M50.9422 54.2496L57.7797 40.2049L53.0149 37.8852L54.2249 35.3999L66.6847 41.4658L65.4804 43.9396L60.7157 41.6199L53.8726 55.6763L50.9422 54.2496Z" fill="white"/>
<path d="M59.1215 58.2323L67.9646 51.9989L67.4689 41.8483L70.7223 43.4321L70.7497 47.9783C70.766 48.4724 70.7708 48.9609 70.7584 49.4554C70.7576 49.9554 70.7573 50.513 70.7748 51.122L70.8786 51.1726C71.3226 50.7882 71.7267 50.4272 72.0967 50.1069C72.4667 49.7866 72.8426 49.4834 73.2186 49.1802L76.7446 46.364L79.848 47.8748L71.4907 53.8728L72.1006 64.5509L68.8472 62.9671L68.7247 58.0886C68.7193 57.5427 68.7083 57.0082 68.7145 56.4679C68.7151 55.9391 68.7151 55.3528 68.7033 54.7322L68.5994 54.6816C68.1326 55.0835 67.6998 55.4448 67.2955 55.777C66.8911 56.1093 66.4812 56.453 66.0712 56.7968L62.225 59.7432L59.1215 58.2323Z" fill="white"/>
<path d="M77.3616 67.1117L84.1991 53.0669L79.4344 50.7473L80.6443 48.262L93.1041 54.3278L91.8999 56.8016L87.1351 54.4819L80.292 68.5383L77.3616 67.1117Z" fill="white"/>
<path d="M142.833 77.8794L142.405 78.7579L114.324 65.0872C112.179 64.0425 111.298 61.4545 112.345 59.3045L125.249 32.7986L125.687 33.012L142.833 77.8794Z" fill="#E6E7E8"/>
<path d="M109.152 106.668L54.9862 80.2982L57.2654 75.6166L111.431 101.986L111.443 101.992L109.164 106.674L109.152 106.668Z" fill="#E6E7E8"/>
<path d="M103.901 117.453L49.7355 91.0833L52.0146 86.4017L106.18 112.771L106.192 112.777L103.913 117.459L103.901 117.453Z" fill="#E6E7E8"/>
<path d="M98.6567 128.226L44.4909 101.857L46.7644 97.1867L100.93 123.556L100.942 123.562L98.6682 128.232L98.6567 128.226Z" fill="#E6E7E8"/>
<path d="M93.4057 139.011L39.2399 112.641L41.519 107.96L95.6848 134.329L95.6964 134.335L93.4172 139.017L93.4057 139.011Z" fill="#E6E7E8"/>
</g>
<defs>
<filter id="filter0_d_896_1339" x="11.9929" y="8.62662" width="146.27" height="177.435" filterUnits="userSpaceOnUse" color-interpolation-filters="sRGB">
<feFlood flood-opacity="0" result="BackgroundImageFix"/>
<feColorMatrix in="SourceAlpha" type="matrix" values="0 0 0 0 0 0 0 0 0 0 0 0 0 0 0 0 0 0 127 0" result="hardAlpha"/>
<feOffset dx="6.02133" dy="11.29"/>
<feGaussianBlur stdDeviation="4.70416"/>
<feComposite in2="hardAlpha" operator="out"/>
<feColorMatrix type="matrix" values="0 0 0 0 0 0 0 0 0 0 0 0 0 0 0 0 0 0 0.4 0"/>
<feBlend mode="normal" in2="BackgroundImageFix" result="effect1_dropShadow_896_1339"/>
<feBlend mode="normal" in="SourceGraphic" in2="effect1_dropShadow_896_1339" result="shape"/>
</filter>
</defs>
</svg>
